<?xml version="1.0" encoding="utf-8"?>
<!-- Generator: Adobe Illustrator 19.0.0, SVG Export Plug-In . SVG Version: 6.00 Build 0)  -->
<svg version="1.1" xmlns="http://www.w3.org/2000/svg" xmlns:xlink="http://www.w3.org/1999/xlink" x="0px" y="0px"
	 viewBox="0 0 728 317" style="enable-background:new 0 0 728 317;" xml:space="preserve">
<style type="text/css">
	.st0{display:none;}
	.st1{display:inline;fill:url(#XMLID_4_);}
	.st2{display:inline;fill:url(#XMLID_7_);}
	.st3{display:inline;fill:url(#XMLID_12_);}
	.st4{display:inline;}
	.st5{fill:url(#XMLID_14_);}
	.st6{fill:url(#XMLID_15_);}
	.st7{fill:url(#XMLID_17_);}
	.st8{fill:#FFFFFF;stroke:#000000;stroke-miterlimit:10;}
	.st9{fill:#BD0402;stroke:#000000;stroke-miterlimit:10;}
	.st10{fill:#FF6600;}
	.st11{font-family:'MyriadPro-Regular';}
	.st12{font-size:65px;}
	.st13{font-size:60px;}
	.st14{fill:#FF0000;}
	.st15{fill:#CC0099;}
	.st16{fill:#FFFFFF;}
	.st17{font-size:29.1068px;}
	.st18{display:inline;fill:#BD0402;stroke:#000000;stroke-miterlimit:10;}
	.st19{display:inline;fill:#FFFFFF;stroke:#000000;stroke-miterlimit:10;}
</style>
<g id="Calque_1" class="st0">
</g>
<g id="Calque_8">
</g>
<g id="Calque_9">
</g>
<g id="Calque_10" class="st0">
	
		<linearGradient id="XMLID_4_" gradientUnits="userSpaceOnUse" x1="491.1591" y1="470.6845" x2="523.4332" y2="474.9725" gradientTransform="matrix(7.355751e-003 -1 1 7.355751e-003 -291.7643 930.0257)">
		<stop  offset="0.2029" style="stop-color:#871100"/>
		<stop  offset="0.9944" style="stop-color:#D41100"/>
	</linearGradient>
	<path id="XMLID_8_" class="st1" d="M238.2,388.1c-21.5-6.1-62.1-13.6-105.9-1.9l-24.8,41.2l1,0c66.9-21.8,129.7-5.3,152.8,2.5
		L238.2,388.1z"/>
	
		<linearGradient id="XMLID_7_" gradientUnits="userSpaceOnUse" x1="844.001" y1="484.8109" x2="876.2751" y2="489.0988" gradientTransform="matrix(6.196224e-002 0.3672 -1.7256 0.2912 968.045 -129.9354)">
		<stop  offset="0.2029" style="stop-color:#871100"/>
		<stop  offset="0.9944" style="stop-color:#D41100"/>
	</linearGradient>
	<path id="XMLID_22_" class="st2" d="M91.7,357.3c37.6-4.1,108.1-13.3,182.8-30.4l39.8-22.4l-1.8,0.3
		c-113.8,27.6-223.4,40.1-263.8,44L91.7,357.3z"/>
	
		<linearGradient id="XMLID_12_" gradientUnits="userSpaceOnUse" x1="523.1803" y1="473.4491" x2="555.4544" y2="477.737" gradientTransform="matrix(7.355751e-003 -1 1 7.355751e-003 -291.7643 930.0257)">
		<stop  offset="0.2029" style="stop-color:#871100"/>
		<stop  offset="0.9944" style="stop-color:#D41100"/>
	</linearGradient>
	<path id="XMLID_16_" class="st3" d="M241.2,356.1c-21.5-6.1-62.1-13.6-105.9-1.9l-24.8,41.2l1,0c66.9-21.8,129.7-5.3,152.8,2.5
		L241.2,356.1z"/>
	<g id="XMLID_1_" class="st4">
		<g id="XMLID_36_">
			
				<linearGradient id="XMLID_14_" gradientUnits="userSpaceOnUse" x1="792.7811" y1="408.6248" x2="816.9664" y2="411.8381" gradientTransform="matrix(7.355751e-003 -1 1 7.355751e-003 -291.7643 930.0257)">
				<stop  offset="0.2029" style="stop-color:#871100"/>
				<stop  offset="0.9944" style="stop-color:#D41100"/>
			</linearGradient>
			<path id="XMLID_41_" class="st5" d="M159.3,100.1c-11.8-4.5-39.5-12.3-69.4-1.8l-15.4,31.9l0.7,0c43-17.6,83.3-4.4,98.1,1.8
				L159.3,100.1z"/>
		</g>
		
			<linearGradient id="XMLID_15_" gradientUnits="userSpaceOnUse" x1="735.7038" y1="407.884" x2="767.9778" y2="412.172" gradientTransform="matrix(7.355751e-003 -1 1 7.355751e-003 -291.7643 930.0257)">
			<stop  offset="0.2029" style="stop-color:#871100"/>
			<stop  offset="0.9944" style="stop-color:#D41100"/>
		</linearGradient>
		<path id="XMLID_46_" class="st6" d="M177.2,143.1c-21.5-6.1-62.1-13.6-105.9-1.9l-24.8,41.2l1,0c66.9-21.8,129.7-5.3,152.8,2.5
			L177.2,143.1z"/>
		
			<linearGradient id="XMLID_17_" gradientUnits="userSpaceOnUse" x1="1301.5691" y1="621.0468" x2="1328.88" y2="624.6754" gradientTransform="matrix(-0.1578 -0.9875 0.9875 -0.1578 -283.0589 1474.8351)">
			<stop  offset="0.2029" style="stop-color:#871100"/>
			<stop  offset="0.9944" style="stop-color:#D41100"/>
		</linearGradient>
		<path id="XMLID_37_" class="st7" d="M152.9,87.2l-27.3-49.3L96.5,86.3l0.4,0C121.4,78.3,144.4,84.3,152.9,87.2z"/>
	</g>
</g>
<g id="Calque_7" class="st0">
	<g id="XMLID_31_" class="st4">
		<polygon id="XMLID_9_" class="st8" points="736.9,214.5 712.4,214.5 688,172.1 663.6,214.5 639.1,214.5 688,129.8 		"/>
		<polygon id="XMLID_33_" class="st9" points="794.4,314.5 581.6,314.5 616.2,254.5 640.9,254.5 638.2,259.2 619.1,292.5 
			756.9,292.5 737.8,259.2 735.1,254.4 734.7,253.6 712.4,214.5 736.9,214.5 747,232.3 759.7,254.5 759.8,254.5 		"/>
	</g>
</g>
<g id="Calque_3">
	<text id="XMLID_54_" transform="matrix(1 0 0 1 307.3333 117.466)"><tspan x="0" y="0" class="st10 st11 st12">E</tspan><tspan x="32" y="0" class="st10 st11 st13">thique</tspan></text>
	<text id="XMLID_53_" transform="matrix(1 0 0 1 339.9998 164.3742)"><tspan x="0" y="0" class="st14 st11 st12">H</tspan><tspan x="42.4" y="0" class="st14 st11 st13">andicap</tspan></text>
	<text id="XMLID_32_" transform="matrix(1 0 0 1 372.0002 211.2956)"><tspan x="0" y="0" class="st15 st11 st12">S</tspan><tspan x="32" y="0" class="st15 st11 st13">ociété</tspan></text>
	<path id="XMLID_11_" class="st15" d="M289.6,78l-87.4,176.2l195.6-25.6l-0.7-1C325.6,180.2,298.1,106.4,289.6,78z"/>
	<path id="XMLID_10_" class="st14" d="M291.9,103.6l-90,150.2l175.5,2.8l-0.6-1C317.2,202.1,297.4,130.8,291.9,103.6z"/>
	<path id="XMLID_5_" class="st10" d="M288.4,128.9l-87.3,126.5l153.6,12.4l-0.4-0.9C304.9,216.6,291.7,153,288.4,128.9z"/>
	<text id="XMLID_18_" transform="matrix(0.9971 7.654000e-002 -7.654000e-002 0.9971 352.1991 223.1173)" class="st16 st11 st17">&amp;</text>
</g>
<g id="Calque_2" class="st0">
	<polygon id="XMLID_79_" class="st18" points="481,248.5 457.3,248.5 449.3,234.6 442.9,223.5 412,170 381.1,223.5 396.6,223.5 
		382.3,248.5 343,248.5 412,129 	"/>
	<polygon id="XMLID_78_" class="st19" points="455.5,272.5 368.5,272.5 380.5,251.5 382.3,248.5 396.6,223.5 412,196.7 427.4,223.5 
		441.5,248.1 441.7,248.5 443.5,251.5 	"/>
</g>
<g id="Calque_4">
</g>
<g id="Calque_5">
</g>
<g id="Calque_6">
</g>
</svg>
